<svg width="1280" height="720" xmlns="http://www.w3.org/2000/svg" xmlns:xlink="http://www.w3.org/1999/xlink" overflow="hidden"><defs><clipPath id="clip0"><rect x="0" y="0" width="1280" height="720"/></clipPath></defs><g clip-path="url(#clip0)"><rect x="0" y="0" width="1280" height="720" fill="#FFFFFF"/><path d="M246 330.5C246 229.156 329.275 147 432 147 534.725 147 618 229.156 618 330.5 618 431.844 534.725 514 432 514 329.275 514 246 431.844 246 330.5Z" stroke="#009145" stroke-width="8" stroke-miterlimit="8" fill="none" fill-rule="evenodd"/><path d="M228.227 287.847 296.312 297.244 286.174 370.696 218.09 361.299Z" stroke="#FFFFFF" stroke-width="2" stroke-miterlimit="8" fill="#FFFFFF" fill-rule="evenodd"/><path d="M0 0 25.5477 41.4723" stroke="#009145" stroke-width="8" stroke-linecap="round" stroke-miterlimit="8" fill="none" fill-rule="evenodd" transform="matrix(-1 0 0 1 249.548 366)"/><path d="M250 366 289.688 390.252" stroke="#009145" stroke-width="8" stroke-linecap="round" stroke-miterlimit="8" fill="none" fill-rule="evenodd"/><g><g><g><path d="M344.567 380.153 335.608 407.028 356.033 427.453 382.908 418.494C390.038 422.482 397.616 425.61 405.483 427.811L418.025 452.894 446.692 452.894 459.233 427.811C467.008 425.673 474.476 422.542 481.45 418.494L508.325 427.453 528.75 407.028 519.792 380.153C523.778 373.022 526.905 365.444 529.108 357.578L554.192 345.036 554.192 316.369 528.75 304.186C526.611 296.411 523.479 288.944 519.433 281.969L528.392 255.094 507.967 234.669 481.092 243.628C473.962 239.64 466.384 236.512 458.517 234.311L446.333 209.167 417.667 209.167 405.125 234.25C397.35 236.387 389.883 239.519 382.908 243.567L356.033 234.608 335.608 255.033 344.567 281.908C340.581 289.039 337.453 296.617 335.25 304.483L310.167 316.667 310.167 345.333 335.25 357.875C337.384 365.671 340.516 373.158 344.567 380.153ZM317.333 321.196 338.382 310.969 341.309 309.536 342.166 306.397C344.223 299.074 347.137 292.02 350.848 285.381L352.357 282.636 351.368 279.662 343.807 256.983 357.972 242.814 380.644 250.375 383.707 251.396 386.502 249.777C392.941 246.039 399.835 243.148 407.013 241.177L410.106 240.335 411.539 237.468 422.103 216.333 441.854 216.333 452.067 237.403 453.5 240.327 456.639 241.184C463.959 243.244 471.01 246.16 477.648 249.87L480.396 251.382 483.371 250.389 506.042 242.828 520.207 256.997 512.646 279.676 511.625 282.74 513.245 285.531C516.984 291.971 519.875 298.868 521.845 306.049L522.708 309.213 525.665 310.629 547.025 320.866 547.025 340.6 525.901 351.163 523.035 352.597 522.193 355.686C520.135 363.008 517.22 370.062 513.51 376.702L512.001 379.447 512.99 382.421 520.551 405.1 506.386 419.268 483.715 411.707 480.651 410.686 477.856 412.306C471.417 416.044 464.521 418.935 457.341 420.906L454.253 421.748 452.819 424.615 442.255 445.756 422.461 445.756 411.901 424.615 410.468 421.748 407.375 420.906C400.057 418.845 393.006 415.93 386.37 412.22L383.621 410.708 380.647 411.7 357.975 419.261 343.811 405.093 351.375 382.421 352.393 379.357 350.777 376.562C347.036 370.122 344.146 363.226 342.177 356.044L341.331 352.955 338.464 351.522 317.333 340.958Z" stroke="#009145" stroke-width="1.33722" fill="#009145"/><path d="M432 374.061C455.748 374.061 475 354.809 475 331.061 475 307.313 455.748 288.061 432 288.061 408.252 288.061 389 307.313 389 331.061 389.075 354.778 408.283 373.986 432 374.061ZM432 295.202C451.79 295.202 467.833 311.246 467.833 331.036 467.833 350.826 451.79 366.869 432 366.869 412.21 366.869 396.167 350.826 396.167 331.036 396.192 311.256 412.22 295.228 432 295.202Z" stroke="#009145" stroke-width="1.33722" fill="#009145"/></g></g></g><text font-family="Arial,Arial_MSFontService,sans-serif" font-weight="700" font-size="53.3333" transform="translate(249.586 637)">COLLECTION OF TUTORIALS</text><path d="M1083.46 446.301 574.857 49.2593 608.755 12.1916Z" fill="#B9D478" fill-rule="evenodd"/><path d="M1084.17 423.033 630.416 8.13458 667.226-26.0423Z" fill="#B9D478" fill-rule="evenodd"/><path d="M1095.31 469.746C1104.87 476.894 1106.83 490.442 1099.68 500.007L1098.14 502.076C1090.99 511.641 1077.44 513.601 1067.88 506.454L512.029 91.0915C502.464 83.9441 500.504 70.3959 507.652 60.8309L509.198 58.7612C516.346 49.1962 529.894 47.2363 539.459 54.3838Z" fill="#009145" fill-rule="evenodd"/><path d="M0 50.2301 643.269 0 643.269 50.2301Z" fill="#B9D478" fill-rule="evenodd" transform="matrix(0.737957 -0.674848 -0.674848 -0.737957 1119.76 483.368)"/><path d="M0 50.2301 612.793 0 612.793 50.2301Z" fill="#B9D478" fill-rule="evenodd" transform="matrix(0.680407 -0.732835 -0.732835 -0.680407 1121.96 457.21)"/><path d="M1305.05 315.216C1315.04 308.558 1328.53 311.255 1335.19 321.242L1335.19 321.242C1341.85 331.228 1339.15 344.721 1329.16 351.379L1095.26 507.339C1085.27 513.998 1071.78 511.3 1065.12 501.314L1065.12 501.314C1058.46 491.328 1061.16 477.835 1071.14 471.176Z" fill="#009145" fill-rule="evenodd"/><path d="M618.116 113.602 590.686 150.309 489.742 74.8776 517.172 38.1699Z" fill="#009145" fill-rule="evenodd"/><path d="M0 0 1.47895 7.5537" stroke="#009145" stroke-width="8" stroke-linecap="round" stroke-miterlimit="8" fill="none" fill-rule="evenodd" transform="matrix(1 0 0 -1 251 290.554)"/></g></svg>