<svg width="1280" height="720" xmlns="http://www.w3.org/2000/svg" xmlns:xlink="http://www.w3.org/1999/xlink" overflow="hidden"><defs><clipPath id="clip0"><rect x="0" y="0" width="1280" height="720"/></clipPath></defs><g clip-path="url(#clip0)"><rect x="0" y="0" width="1280" height="720" fill="#FFFFFF"/><path d="M542 336 542 400.5C542 436.122 477.529 465 398 465 318.471 465 254 436.122 254 400.5L254 336Z" stroke="#009145" stroke-width="8" stroke-miterlimit="8" fill="none" fill-rule="evenodd"/><path d="M542 263 542 327.5C542 363.122 477.529 392 398 392 318.471 392 254 363.122 254 327.5L254 263Z" stroke="#009145" stroke-width="8" stroke-miterlimit="8" fill="#FFFFFF" fill-rule="evenodd"/><path d="M542 190 542 254.5C542 290.122 477.529 319 398 319 318.471 319 254 290.122 254 254.5L254 190Z" stroke="#009145" stroke-width="8" stroke-miterlimit="8" fill="#FFFFFF" fill-rule="evenodd"/><path d="M254 184.5C254 150.534 318.471 123 398 123 477.529 123 542 150.534 542 184.5 542 218.465 477.529 246 398 246 318.471 246 254 218.465 254 184.5Z" stroke="#009145" stroke-width="8" stroke-miterlimit="8" fill="#FFFFFF" fill-rule="evenodd"/><rect x="428" y="361" width="139" height="164" fill="#FFFFFF"/><path d="M405.018 424.328 485.997 318.076 536.654 356.684 455.675 462.935Z" fill="#FFFFFF" fill-rule="evenodd"/><path d="M500 342 532.783 369.089" stroke="#009145" stroke-width="8" stroke-linecap="round" stroke-miterlimit="8" fill="none" fill-rule="evenodd"/><path d="M443 342 499.884 342" stroke="#009145" stroke-width="8" stroke-linecap="round" stroke-miterlimit="8" fill="none" fill-rule="evenodd"/><path d="M442 491 625.704 491" stroke="#009145" stroke-width="8" stroke-linecap="round" stroke-miterlimit="8" fill="none" fill-rule="evenodd"/><path d="M535 370 624.875 370" stroke="#009145" stroke-width="8" stroke-linecap="round" stroke-miterlimit="8" fill="none" fill-rule="evenodd"/><path d="M626 370 626 491.436" stroke="#009145" stroke-width="8" stroke-linecap="round" stroke-miterlimit="8" fill="none" fill-rule="evenodd"/><path d="M442 342 442 491.343" stroke="#009145" stroke-width="8" stroke-linecap="round" stroke-miterlimit="8" fill="none" fill-rule="evenodd"/><text font-family="Arial,Arial_MSFontService,sans-serif" font-weight="700" font-size="53.3333" transform="translate(249.586 637)">COLLECTION OF TUTORIALS</text><path d="M1083.46 446.301 574.857 49.2593 608.755 12.1916Z" fill="#B9D478" fill-rule="evenodd"/><path d="M1084.17 423.033 630.416 8.13458 667.226-26.0423Z" fill="#B9D478" fill-rule="evenodd"/><path d="M1095.31 469.746C1104.87 476.894 1106.83 490.442 1099.68 500.007L1098.14 502.076C1090.99 511.641 1077.44 513.601 1067.88 506.454L512.029 91.0915C502.464 83.9441 500.504 70.3959 507.652 60.8309L509.198 58.7612C516.346 49.1962 529.894 47.2363 539.459 54.3838Z" fill="#009145" fill-rule="evenodd"/><path d="M0 50.2301 643.269 0 643.269 50.2301Z" fill="#B9D478" fill-rule="evenodd" transform="matrix(0.737957 -0.674848 -0.674848 -0.737957 1119.76 483.368)"/><path d="M0 50.2301 612.793 0 612.793 50.2301Z" fill="#B9D478" fill-rule="evenodd" transform="matrix(0.680407 -0.732835 -0.732835 -0.680407 1121.96 457.21)"/><path d="M1305.05 315.216C1315.04 308.558 1328.53 311.255 1335.19 321.242L1335.19 321.242C1341.85 331.228 1339.15 344.721 1329.16 351.379L1095.26 507.339C1085.27 513.998 1071.78 511.3 1065.12 501.314L1065.12 501.314C1058.46 491.328 1061.16 477.835 1071.14 471.176Z" fill="#009145" fill-rule="evenodd"/><path d="M618.116 113.602 590.686 150.309 489.742 74.8776 517.172 38.1699Z" fill="#009145" fill-rule="evenodd"/></g></svg>