<svg width="1280" height="720" xmlns="http://www.w3.org/2000/svg" xmlns:xlink="http://www.w3.org/1999/xlink" overflow="hidden"><defs><clipPath id="clip0"><rect x="0" y="0" width="1280" height="720"/></clipPath><clipPath id="clip1"><path d="M392.504 144.386 565.345 163.88 545.73 337.794 372.888 318.3Z" fill-rule="evenodd" clip-rule="evenodd"/></clipPath><clipPath id="clip2"><path d="M392.504 144.386 565.345 163.88 545.73 337.794 372.888 318.3Z" fill-rule="evenodd" clip-rule="evenodd"/></clipPath><clipPath id="clip3"><path d="M375.782 130.371 578.272 153.209 555.434 355.696 352.944 332.858Z" fill-rule="evenodd" clip-rule="evenodd"/></clipPath></defs><g clip-path="url(#clip0)"><rect x="0" y="0" width="1280" height="720" fill="#FFFFFF"/><path d="M1083.46 446.301 574.857 49.2593 608.755 12.1916Z" fill="#E3EEC9" fill-rule="evenodd"/><path d="M1084.17 423.033 630.416 8.13458 667.226-26.0423Z" fill="#E3EEC9" fill-rule="evenodd"/><path d="M1095.31 469.746C1104.87 476.894 1106.83 490.442 1099.68 500.007L1098.14 502.076C1090.99 511.641 1077.44 513.601 1067.88 506.454L512.029 91.0915C502.464 83.9441 500.504 70.3959 507.652 60.8309L509.198 58.7612C516.346 49.1962 529.894 47.2363 539.459 54.3838Z" fill="#E3EEC9" fill-rule="evenodd"/><path d="M0 50.2301 643.269 0 643.269 50.2301Z" fill="#E3EEC9" fill-rule="evenodd" transform="matrix(0.737957 -0.674848 -0.674848 -0.737957 1119.76 483.368)"/><path d="M0 50.2301 612.793 0 612.793 50.2301Z" fill="#E3EEC9" fill-rule="evenodd" transform="matrix(0.680407 -0.732835 -0.732835 -0.680407 1121.96 457.21)"/><path d="M1305.05 315.216C1315.04 308.558 1328.53 311.255 1335.19 321.242L1335.19 321.242C1341.85 331.228 1339.15 344.721 1329.16 351.379L1095.26 507.339C1085.27 513.998 1071.78 511.3 1065.12 501.314L1065.12 501.314C1058.46 491.328 1061.16 477.835 1071.14 471.176Z" fill="#E3EEC9" fill-rule="evenodd"/><path d="M618.116 113.602 590.686 150.309 489.742 74.8776 517.172 38.1699Z" fill="#E3EEC9" fill-rule="evenodd"/><g><g><g><path d="M595.742 427.946 453.05 285.262C444.834 277.042 431.508 277.042 423.284 285.262L393.657 314.896 431.241 352.48C439.976 349.528 449.992 351.509 456.952 358.473 463.955 365.48 465.919 375.581 462.892 384.348L499.12 420.573C507.888 417.55 517.996 419.506 524.995 426.516 534.776 436.297 534.776 452.146 524.995 461.934 515.207 471.718 499.359 471.718 489.567 461.934 482.212 454.571 480.391 443.759 484.122 434.697L450.333 400.911 450.333 489.818C452.716 490.999 454.968 492.571 456.952 494.556 466.733 504.337 466.733 520.185 456.952 529.977 447.171 539.754 431.312 539.754 421.538 529.977 411.757 520.182 411.757 504.333 421.538 494.556 423.957 492.141 426.756 490.313 429.743 489.089L429.743 399.354C426.756 398.13 423.964 396.32 421.538 393.887 414.129 386.482 412.348 375.606 416.146 366.508L379.096 329.45 281.251 427.284C273.032 435.511 273.032 448.838 281.251 457.058L423.95 599.745C432.166 607.965 445.489 607.965 453.716 599.745L595.742 457.719C603.961 449.5 603.961 436.166 595.742 427.946Z" fill="#F05133"/></g></g></g><g clip-path="url(#clip1)"><g clip-path="url(#clip2)"><g clip-path="url(#clip3)"><path d="M0 0 203.771 0 203.771 203.771 0 203.771Z" stroke="#F05133" stroke-width="12.7356" fill="#FFFFFF" fill-opacity="0.01" transform="matrix(0.993713 0.112079 -0.112077 0.9937 375.782 130.371)"/><path d="M174.054 114.624 174.054 63.6814 123.112 63.6814" stroke="#F05133" stroke-width="12.7356" stroke-linecap="round" stroke-linejoin="round" fill="none" transform="matrix(0.993713 0.112079 -0.112077 0.9937 375.782 130.371)"/><path d="M25.4714 157.074 69.3606 104.009 111.16 129.48 174.054 63.6793" stroke="#F05133" stroke-width="12.7356" stroke-linecap="round" stroke-linejoin="round" fill="none" transform="matrix(0.993713 0.112079 -0.112077 0.9937 375.782 130.371)"/></g></g></g></g></svg>