<svg width="1280" height="720" xmlns="http://www.w3.org/2000/svg" xmlns:xlink="http://www.w3.org/1999/xlink" overflow="hidden"><defs><clipPath id="clip0"><rect x="0" y="0" width="1280" height="720"/></clipPath></defs><g clip-path="url(#clip0)"><rect x="0" y="0" width="1280" height="720" fill="#FFFFFF"/><path d="M1083.46 446.301 574.857 49.2593 608.755 12.1916Z" fill="#E3EEC9" fill-rule="evenodd"/><path d="M1084.17 423.033 630.416 8.13458 667.226-26.0423Z" fill="#E3EEC9" fill-rule="evenodd"/><path d="M1095.31 469.746C1104.87 476.894 1106.83 490.442 1099.68 500.007L1098.14 502.076C1090.99 511.641 1077.44 513.601 1067.88 506.454L512.029 91.0915C502.464 83.9441 500.504 70.3959 507.652 60.8309L509.198 58.7612C516.346 49.1962 529.894 47.2363 539.459 54.3838Z" fill="#E3EEC9" fill-rule="evenodd"/><path d="M0 50.2301 643.269 0 643.269 50.2301Z" fill="#E3EEC9" fill-rule="evenodd" transform="matrix(0.737957 -0.674848 -0.674848 -0.737957 1119.76 483.368)"/><path d="M0 50.2301 612.793 0 612.793 50.2301Z" fill="#E3EEC9" fill-rule="evenodd" transform="matrix(0.680407 -0.732835 -0.732835 -0.680407 1121.96 457.21)"/><path d="M1305.05 315.216C1315.04 308.558 1328.53 311.255 1335.19 321.242L1335.19 321.242C1341.85 331.228 1339.15 344.721 1329.16 351.379L1095.26 507.339C1085.27 513.998 1071.78 511.3 1065.12 501.314L1065.12 501.314C1058.46 491.328 1061.16 477.835 1071.14 471.176Z" fill="#E3EEC9" fill-rule="evenodd"/><path d="M618.116 113.602 590.686 150.309 489.742 74.8776 517.172 38.1699Z" fill="#E3EEC9" fill-rule="evenodd"/><path d="M239 493.332 239 241.668C239 216.446 259.446 196 284.668 196L513 196 513 539 284.668 539C259.446 539 239 518.554 239 493.332Z" stroke="#009145" stroke-width="8" stroke-miterlimit="8" fill="none" fill-rule="evenodd"/><path d="M290 476 515 476C490.147 476 470 490.103 470 507.5 470 524.897 490.147 539 515 539L290 539C265.147 539 245 524.897 245 507.5 245 490.103 265.147 476 290 476Z" stroke="#009145" stroke-width="8" stroke-miterlimit="8" fill="none" fill-rule="evenodd"/><path d="M478 507C478 491.536 496.132 479 518.5 479 540.868 479 559 491.536 559 507 559 522.464 540.868 535 518.5 535 496.132 535 478 522.464 478 507Z" fill="#FFFFFF" fill-rule="evenodd"/><path d="M272 196 272 479.479" stroke="#009145" stroke-width="8" stroke-miterlimit="8" fill="none" fill-rule="evenodd"/><path d="M299 250.834C299 242.641 305.641 236 313.834 236L470.166 236C478.359 236 485 242.641 485 250.834L485 310.166C485 318.359 478.359 325 470.166 325L313.834 325C305.641 325 299 318.359 299 310.166Z" stroke="#009145" stroke-width="8" stroke-miterlimit="8" fill="none" fill-rule="evenodd"/><text fill="#009145" font-family="Aptos,Aptos_MSFontService,sans-serif" font-weight="400" font-size="64" transform="translate(322.672 301)">A</text><text fill="#009145" font-family="Aptos,Aptos_MSFontService,sans-serif" font-weight="400" font-size="64" transform="translate(381.338 301)">-</text><text fill="#009145" font-family="Aptos,Aptos_MSFontService,sans-serif" font-weight="400" font-size="64" transform="translate(424.172 301)">Z</text><g><g><g><path d="M26.6667 18.6667 18.6667 18.6667 18.6667 109.333 109.333 109.333 109.333 101.333 26.6667 101.333Z" fill="#009145" transform="matrix(1 0 0 1.00781 328 336)"/><path d="M34.6667 46.6667 49.3333 46.6667 49.3333 93.3333 34.6667 93.3333Z" fill="#009145" transform="matrix(1 0 0 1.00781 328 336)"/><path d="M54.6667 18.6667 69.3333 18.6667 69.3333 93.3333 54.6667 93.3333Z" fill="#009145" transform="matrix(1 0 0 1.00781 328 336)"/><path d="M74.6667 46.6667 89.3333 46.6667 89.3333 93.3333 74.6667 93.3333Z" fill="#009145" transform="matrix(1 0 0 1.00781 328 336)"/><path d="M94.6667 69.3333 109.333 69.3333 109.333 93.3333 94.6667 93.3333Z" fill="#009145" transform="matrix(1 0 0 1.00781 328 336)"/></g></g></g></g></svg>