<svg width="1280" height="720" xmlns="http://www.w3.org/2000/svg" xmlns:xlink="http://www.w3.org/1999/xlink" overflow="hidden"><defs><clipPath id="clip0"><rect x="0" y="0" width="1280" height="720"/></clipPath></defs><g clip-path="url(#clip0)"><rect x="0" y="0" width="1280" height="720" fill="#FFFFFF"/><path d="M1083.46 446.301 574.857 49.2593 608.755 12.1916Z" fill="#E3EEC9" fill-rule="evenodd"/><path d="M1084.17 423.033 630.416 8.13458 667.226-26.0423Z" fill="#E3EEC9" fill-rule="evenodd"/><path d="M1095.31 469.746C1104.87 476.894 1106.83 490.442 1099.68 500.007L1098.14 502.076C1090.99 511.641 1077.44 513.601 1067.88 506.454L512.029 91.0915C502.464 83.9441 500.504 70.3959 507.652 60.8309L509.198 58.7612C516.346 49.1962 529.894 47.2363 539.459 54.3838Z" fill="#E3EEC9" fill-rule="evenodd"/><path d="M0 50.2301 643.269 0 643.269 50.2301Z" fill="#E3EEC9" fill-rule="evenodd" transform="matrix(0.737957 -0.674848 -0.674848 -0.737957 1119.76 483.368)"/><path d="M0 50.2301 612.793 0 612.793 50.2301Z" fill="#E3EEC9" fill-rule="evenodd" transform="matrix(0.680407 -0.732835 -0.732835 -0.680407 1121.96 457.21)"/><path d="M1305.05 315.216C1315.04 308.558 1328.53 311.255 1335.19 321.242L1335.19 321.242C1341.85 331.228 1339.15 344.721 1329.16 351.379L1095.26 507.339C1085.27 513.998 1071.78 511.3 1065.12 501.314L1065.12 501.314C1058.46 491.328 1061.16 477.835 1071.14 471.176Z" fill="#E3EEC9" fill-rule="evenodd"/><path d="M618.116 113.602 590.686 150.309 489.742 74.8776 517.172 38.1699Z" fill="#E3EEC9" fill-rule="evenodd"/><g><g><g><path d="M341.178 495.62 316.387 470.829C314.543 468.969 313.509 466.456 313.511 463.837 313.522 461.236 314.555 458.743 316.387 456.896 318.238 455.033 320.752 453.981 323.378 453.97 325.987 453.995 328.481 455.045 330.32 456.896L336.765 463.292 336.765 417.13C336.575 412.12 340.265 407.804 345.244 407.213 350.411 406.912 354.844 410.855 355.146 416.022 355.154 416.16 355.159 416.298 355.161 416.436L355.161 444.5 379.953 448.02C384.527 448.663 387.931 452.574 387.935 457.193L387.935 457.193C387.943 470.242 384.904 483.112 379.06 494.777L378.614 495.62" stroke="#009145" stroke-width="9.32167" stroke-miterlimit="10" fill="none"/><path d="M355.161 437.905C357.84 436.731 360.265 435.047 362.301 432.947 371.372 423.856 371.356 409.132 362.265 400.06 353.173 390.989 338.449 391.005 329.378 400.097 320.32 409.174 320.32 423.87 329.378 432.947 331.431 435.048 333.873 436.732 336.567 437.905" stroke="#009145" stroke-width="9.32167" stroke-miterlimit="10" fill="none"/></g></g></g><g><g><g><path d="M273.9 479.929 253.629 459.658 238.037 453.216C243.229 445.833 246.01 437.026 246 428 246 403.738 226.262 384 202 384 177.738 384 158 403.738 158 428 158 452.262 177.738 472 202 472 211.104 472.01 219.985 469.181 227.405 463.906L233.83 479.456 254.1 499.728C259.567 505.195 268.432 505.196 273.9 499.729 279.367 494.261 279.367 485.396 273.9 479.929ZM166 428C166 408.15 182.15 392 202 392 221.85 392 238 408.15 238 428 238 447.85 221.85 464 202 464 182.15 464 166 447.85 166 428ZM268.243 494.071C265.898 496.41 262.102 496.41 259.757 494.071L240.614 474.928 234.641 460.469 249.1 466.443 268.243 485.586C270.582 487.931 270.582 491.727 268.243 494.071Z" stroke="#009145" stroke-width="0.249974" fill="#009145"/></g></g></g><g><g><g><path d="M54.6245 68.881C55.6562 69.9428 57.0862 70.6107 58.6745 70.6406L58.6788 70.6406 58.6831 70.6406C58.6959 70.6406 58.7131 70.6406 58.7302 70.6406 60.006 70.6406 61.1619 70.1269 62.0053 69.292L69.2963 62.0011C70.1269 61.1619 70.6449 60.006 70.6449 58.7259 70.6449 58.7088 70.6449 58.6917 70.6449 58.6745L70.6449 58.6788C70.6149 57.0862 69.9471 55.6605 68.8896 54.6287L66.475 52.2141C66.689 51.7316 66.8903 51.2453 67.0786 50.7542L70.4908 50.7713C70.5893 50.7799 70.7006 50.7799 70.8162 50.7799 73.5947 50.7799 75.8595 48.5965 75.9922 45.8522L75.9922 45.8393 75.9922 35.5344C75.8595 32.7773 73.5904 30.5938 70.8162 30.5938 70.7006 30.5938 70.5893 30.5981 70.4779 30.6067L70.4951 30.6067 67.0829 30.6067C66.8945 30.11 66.689 29.622 66.475 29.1382L68.9024 26.7364C69.977 25.7817 70.6492 24.3946 70.6492 22.849 70.6492 21.5047 70.1397 20.2803 69.3006 19.3555L69.3049 19.3598 62.0182 12.0731C61.0977 11.2383 59.8733 10.7288 58.529 10.7288 56.9834 10.7288 55.5963 11.4053 54.6416 12.4756L54.6373 12.4798 52.2227 14.8945C51.7402 14.6804 51.2538 14.4792 50.7628 14.2908L50.7799 10.8744C50.7885 10.7759 50.7885 10.6646 50.7885 10.549 50.7885 7.77047 48.605 5.50569 45.8607 5.37297L45.8479 5.37297 35.5387 5.37297C32.7815 5.50569 30.5981 7.77475 30.5981 10.549 30.5981 10.6646 30.6024 10.7759 30.6109 10.8872L30.6109 10.8701 30.6109 14.2822C30.1143 14.4706 29.6305 14.6718 29.1425 14.8902L26.7407 12.4627C25.786 11.3838 24.3988 10.7031 22.8533 10.7031 21.509 10.7031 20.2803 11.2169 19.3598 12.0603L19.3641 12.056 12.0774 19.3427C11.2426 20.1947 10.7245 21.3634 10.7245 22.6521 10.7245 22.9175 10.7459 23.1744 10.7887 23.427L10.7845 23.4013C10.9943 24.7114 11.6022 25.8502 12.4798 26.7193L12.4798 26.7193 14.8945 29.1296C14.6761 29.6177 14.4706 30.1058 14.2822 30.6067L10.8701 30.5895C10.7716 30.581 10.656 30.581 10.5447 30.581 7.77047 30.581 5.50569 32.7644 5.36869 35.5044L5.36869 35.5172 5.36869 45.8265C5.50141 48.5836 7.77047 50.7671 10.5447 50.7671 10.6603 50.7671 10.7716 50.7628 10.8829 50.7542L10.8658 50.7542 14.278 50.7542C14.4663 51.2508 14.6718 51.7346 14.8859 52.2227L12.4627 54.6245C11.401 55.6605 10.7374 57.0948 10.7117 58.6831L10.7117 58.6874C10.7117 58.7045 10.7117 58.7216 10.7117 58.7388 10.7117 60.0103 11.2254 61.1619 12.0603 61.9968L19.347 69.2878C20.1861 70.1183 21.342 70.6321 22.6221 70.6321 22.6392 70.6321 22.6564 70.6321 22.6692 70.6321L22.6692 70.6321C24.2618 70.6021 25.6875 69.9342 26.7193 68.8767L26.7193 68.8767 29.1339 66.4664C29.622 66.6848 30.11 66.886 30.6067 67.0786L30.5895 70.4865C30.581 70.585 30.581 70.6963 30.581 70.8119 30.581 73.5904 32.7644 75.8552 35.5087 75.9879L35.5215 75.9879 45.8265 75.9879C48.5836 75.8552 50.7671 73.5861 50.7671 70.8119 50.7671 70.6963 50.7628 70.585 50.7542 70.4737L50.7542 70.4908 50.7542 67.0743C51.2508 66.886 51.7389 66.6805 52.2227 66.4664ZM44.3366 69.5703 37.02 69.5703 37.0457 64.9765C37.0457 64.8995 37.0071 64.8353 37.0028 64.7582 36.9386 64.3087 36.8273 63.9019 36.6732 63.5166L36.686 63.5509C36.4334 63.0114 36.031 62.579 35.5301 62.2965L35.5172 62.2879C35.3332 62.1638 35.1191 62.0524 34.8965 61.9668L34.8751 61.9583C34.8151 61.9368 34.7723 61.8898 34.7081 61.8726 32.8886 61.3503 31.3045 60.6782 29.8275 59.839L29.9388 59.8947C29.5149 59.6635 29.0055 59.5265 28.466 59.5265 28.466 59.5265 28.4617 59.5265 28.4617 59.5265L28.4617 59.5265C28.3847 59.5265 28.3248 59.5436 28.2434 59.5436 27.4514 59.5693 26.7407 59.8861 26.2013 60.387L26.2013 60.387 26.0942 60.4298 22.9903 63.8506 17.6559 58.5161 20.9225 55.2838 20.9696 55.1682C21.4619 54.6416 21.7787 53.9395 21.813 53.1688L21.813 53.1603C21.8173 53.0704 21.8344 53.0019 21.8344 52.912 21.8344 52.9077 21.8344 52.9034 21.8344 52.8991 21.8344 52.3597 21.6974 51.8502 21.4576 51.4093L21.4662 51.4264C20.6827 50.0607 20.0106 48.4852 19.5268 46.824L19.4883 46.6699C19.4711 46.6057 19.4197 46.5586 19.3983 46.4944 19.2185 46.0877 19.0088 45.7366 18.7604 45.4112L18.769 45.4241C18.6277 45.2785 18.4736 45.1458 18.3066 45.0302L18.2981 45.0216C18.1525 44.9017 17.9941 44.7947 17.8228 44.7005L17.8057 44.692C17.643 44.6149 17.4461 44.5507 17.2449 44.5036L17.2235 44.4993C17.0437 44.4394 16.8339 44.3966 16.6155 44.3752L16.6027 44.3752C16.5299 44.3709 16.47 44.3323 16.3972 44.3323L11.7863 44.3323 11.7863 37.0157 16.3972 37.0371C17.0479 37.02 17.6473 36.8059 18.1397 36.4548L18.1311 36.4634C18.2338 36.4035 18.3238 36.3435 18.4051 36.2793L18.3965 36.2836C18.8632 35.9068 19.2143 35.4017 19.4026 34.828L19.4069 34.8066C19.4197 34.7637 19.4668 34.7423 19.4797 34.6995 20.002 32.8843 20.6742 31.3045 21.5133 29.8317L21.4576 29.9388C21.6888 29.5107 21.8258 29.0012 21.8258 28.4617 21.8258 28.4617 21.8258 28.4617 21.8258 28.4617L21.8258 28.4617C21.8301 28.3718 21.8087 28.3033 21.8044 28.2134 21.7702 27.4342 21.4619 26.7364 20.9696 26.2055L20.9696 26.2055 20.9225 26.0899 17.6602 22.8276 22.8319 17.6559 26.0642 20.9225C26.1413 20.9995 26.2655 20.9738 26.3468 21.0423 26.8606 21.509 27.5327 21.813 28.2734 21.8558L28.2819 21.8558 28.3547 21.8772C28.9327 21.8772 29.4721 21.7231 29.9388 21.4576L29.9217 21.4662C31.2831 20.6827 32.8586 20.0106 34.5197 19.5311L34.6738 19.4925C34.7381 19.4754 34.7852 19.424 34.8494 19.4026 35.0806 19.3127 35.2775 19.21 35.4616 19.0901L35.4487 19.0987C35.9539 18.769 36.3649 18.3366 36.6561 17.8228L36.6646 17.8057C36.7374 17.6473 36.8016 17.4589 36.8444 17.2663L36.8487 17.2449C36.9087 17.0608 36.9557 16.8424 36.9772 16.6155L36.9772 16.6027C36.9814 16.5342 37.02 16.47 37.02 16.4015L37.02 11.7906 44.3409 11.7906 44.3152 16.3843C44.3152 16.4571 44.3537 16.5213 44.358 16.5941 44.3794 16.8296 44.4223 17.0479 44.4907 17.2577L44.4865 17.2363C44.5378 17.4504 44.6021 17.6388 44.6791 17.8186L44.6706 17.7972C44.7733 17.9898 44.8846 18.1568 45.0131 18.3109L45.0088 18.3066C45.1287 18.4779 45.2571 18.632 45.4027 18.769L45.4027 18.769C45.5439 18.8846 45.6981 18.9959 45.865 19.0858L45.8822 19.0944C46.0534 19.21 46.2546 19.3127 46.4601 19.3941L46.4815 19.4026C46.5457 19.424 46.5928 19.4754 46.6613 19.4925 48.4766 20.0148 50.0521 20.6827 51.5248 21.5176L51.4135 21.4619C51.8459 21.7188 52.364 21.8729 52.9205 21.8729 53.7211 21.8729 54.4489 21.5561 54.9841 21.0381L54.9841 21.0381C55.0654 20.9738 55.181 20.9995 55.2538 20.9268L58.5161 17.6644 63.6922 22.8405 60.4256 26.0728 60.3785 26.1884C59.8861 26.715 59.5736 27.4128 59.5393 28.1792L59.5393 28.1877C59.5351 28.2777 59.5137 28.3504 59.5179 28.4403 59.5179 28.4446 59.5179 28.4489 59.5179 28.4489 59.5179 28.9883 59.6549 29.4935 59.8947 29.9388L59.8861 29.9217C60.6653 31.2874 61.3418 32.8672 61.8255 34.5326L61.8641 34.691C61.8769 34.7381 61.9283 34.7595 61.9411 34.8023 62.1381 35.3931 62.4891 35.8897 62.9429 36.2622L62.9472 36.2665C63.0243 36.3264 63.1185 36.3863 63.2084 36.4463L63.2212 36.4548C63.7007 36.8016 64.3001 37.0114 64.9466 37.0285L64.9508 37.0285 69.5617 37.0285 69.5617 44.3452 64.9508 44.3238C64.8823 44.3238 64.8267 44.358 64.7625 44.3623 64.5056 44.3837 64.2701 44.4351 64.0432 44.5079L64.0646 44.5036C63.872 44.5507 63.705 44.6063 63.5466 44.6791L63.568 44.6706C63.3582 44.7819 63.1784 44.906 63.0114 45.0473L63.0157 45.043C62.8573 45.1543 62.7203 45.2742 62.5919 45.4069L62.5919 45.4069C62.472 45.5525 62.3564 45.7152 62.2622 45.8907L62.2537 45.9078C62.1423 46.0748 62.0439 46.2675 61.9625 46.4687L61.954 46.4901C61.9326 46.5543 61.8812 46.6014 61.8598 46.6699 61.3418 48.4809 60.6696 50.0564 59.8348 51.5291L59.8904 51.4221C59.6592 51.8502 59.5222 52.3554 59.5222 52.8948 59.5222 52.8991 59.5222 52.9034 59.5222 52.9077L59.5222 52.9077C59.5179 52.989 59.5351 53.0532 59.5393 53.1346 59.5693 53.9223 59.8818 54.6287 60.3785 55.1596L60.3785 55.1596 60.4256 55.2709 63.8463 58.3706 58.5161 63.705 55.2752 60.4384 55.1682 60.3956C54.6416 59.899 53.9352 59.5822 53.156 59.5522L53.1517 59.5522C53.0661 59.5479 53.0019 59.5308 52.9162 59.5308 52.3725 59.5308 51.8631 59.6678 51.4178 59.9075L51.4349 59.899C50.0692 60.6782 48.4894 61.3546 46.824 61.8384L46.6656 61.8769C46.5928 61.8983 46.5457 61.9497 46.473 61.9754 46.0662 62.1595 45.7152 62.3692 45.3941 62.6176L45.4069 62.609C45.2742 62.7417 45.1543 62.883 45.043 63.0371L45.0345 63.0457C44.906 63.1998 44.7862 63.3753 44.6877 63.5594L44.6791 63.5766C44.6106 63.7307 44.5464 63.9148 44.5036 64.1032L44.4993 64.1246C44.4351 64.3129 44.3923 64.5356 44.3709 64.7625L44.3709 64.7753C44.3666 64.8438 44.3323 64.9037 44.3323 64.9723ZM53.0661 40.6804C53.0661 40.6804 53.0661 40.6804 53.0661 40.6804 53.0661 33.839 47.5219 28.2948 40.6804 28.2948 33.839 28.2948 28.2948 33.839 28.2948 40.6804 28.2948 47.5219 33.839 53.0661 40.6804 53.0661 40.6804 53.0661 40.6804 53.0661 40.6804 53.0661L40.6804 53.0661C47.5176 53.0575 53.0532 47.5176 53.0661 40.6847L53.0661 40.6847ZM40.6804 46.6442C40.6804 46.6442 40.6804 46.6442 40.6804 46.6442 37.3882 46.6442 34.7167 43.977 34.7167 40.6804 34.7167 37.3839 37.3839 34.7167 40.6804 34.7167 43.9727 34.7167 46.6442 37.3839 46.6442 40.6804 46.6442 40.6804 46.6442 40.6804 46.6442 40.6804L46.6442 40.6804C46.6399 43.9727 43.9727 46.6357 40.6847 46.6442L40.6847 46.6442ZM125.989 83.8183 122.234 83.8183C122.003 83.2061 121.75 82.6024 121.48 82.0073L124.148 79.3701C125.257 78.3897 125.95 76.964 125.95 75.3757 125.95 74.0014 125.432 72.7513 124.58 71.8051L124.584 71.8094 116.84 64.0646C115.979 63.2169 114.797 62.6946 113.492 62.6946 113.475 62.6946 113.457 62.6946 113.44 62.6946L113.445 62.6946C111.809 62.7289 110.341 63.4096 109.283 64.497L106.625 67.1557C106.031 66.8873 105.431 66.6389 104.826 66.4108L104.844 62.6518C104.852 62.5491 104.856 62.4249 104.856 62.305 104.856 59.4666 102.626 57.1461 99.8259 57.0048L99.8131 57.0048 88.8659 57.0048C86.0446 57.1461 83.814 59.4708 83.814 62.3136 83.814 62.4335 83.8183 62.5533 83.8269 62.6732L83.8269 62.6561 83.8269 66.4108C83.2189 66.6419 82.6196 66.8903 82.0287 67.16L79.3787 64.4928C78.3212 63.4053 76.8527 62.7203 75.2258 62.6861L75.2216 62.6861 75.2173 62.6861C75.2002 62.6861 75.183 62.6861 75.1659 62.6861 73.8644 62.6861 72.6871 63.2084 71.8265 64.0561L64.0775 71.8008C63.2298 72.7384 62.7118 73.9843 62.7118 75.3543 62.7118 76.9426 63.4096 78.3683 64.5142 79.3401L64.5184 79.3444 67.1771 82.0031C66.9074 82.5982 66.6548 83.2018 66.4236 83.8183L62.6689 83.8012C62.5662 83.7926 62.442 83.7883 62.3222 83.7883 59.4837 83.7883 57.1632 86.0189 57.022 88.8188L57.022 88.8317 57.022 99.7874C57.1632 102.604 59.4837 104.831 62.3222 104.831 62.4463 104.831 62.5662 104.826 62.6861 104.818L62.6689 104.818 66.4236 104.818C66.6548 105.426 66.9031 106.025 67.1728 106.62L64.5099 109.266C63.4182 110.328 62.7332 111.801 62.7032 113.432L62.7032 113.436C62.7032 113.453 62.7032 113.47 62.7032 113.492 62.7032 114.793 63.2255 115.97 64.0732 116.822L71.818 124.567C72.6742 125.419 73.8601 125.946 75.1659 125.946 75.1787 125.946 75.1959 125.946 75.2087 125.946L75.2087 125.946C76.8484 125.912 78.3212 125.218 79.3787 124.126L79.3787 124.126 82.0245 121.476C82.6238 121.75 83.2275 121.999 83.844 122.23L83.8269 125.98C83.8183 126.083 83.814 126.207 83.814 126.327 83.814 129.165 86.0446 131.481 88.8445 131.623L88.8573 131.623 99.8045 131.623C102.626 131.481 104.856 129.161 104.856 126.318 104.856 126.198 104.852 126.079 104.844 125.963L104.844 125.98 104.844 122.221C105.451 121.99 106.051 121.742 106.65 121.472L109.3 124.152C110.362 125.231 111.826 125.907 113.449 125.942L113.453 125.942 113.479 125.942C113.483 125.942 113.492 125.942 113.496 125.942 114.797 125.942 115.979 125.419 116.84 124.572L116.84 124.572 124.567 116.835C125.424 115.979 125.954 114.793 125.954 113.483 125.954 113.479 125.954 113.47 125.954 113.466L125.954 113.466C125.929 111.822 125.244 110.341 124.156 109.27L121.493 106.607C121.763 106.017 122.007 105.422 122.234 104.814L125.993 104.831C126.096 104.839 126.22 104.844 126.34 104.844 129.178 104.844 131.494 102.613 131.636 99.8131L131.636 99.8002 131.636 88.8531C131.494 86.036 129.178 83.8055 126.34 83.8055 126.216 83.8055 126.096 83.8098 125.976 83.8183L125.993 83.8183ZM125.209 98.4088 120.106 98.3831C120.046 98.3831 119.999 98.4131 119.944 98.4174 119.674 98.4388 119.425 98.4902 119.19 98.5715L119.211 98.5672C118.633 98.7599 118.141 99.0724 117.739 99.4748L117.739 99.4748C117.623 99.6161 117.512 99.7745 117.418 99.9415L117.409 99.9586C117.298 100.13 117.195 100.323 117.114 100.528L117.105 100.549C117.079 100.618 117.028 100.669 117.007 100.738 116.459 102.677 115.739 104.364 114.84 105.935L114.9 105.824C114.669 106.248 114.532 106.757 114.532 107.297 114.532 107.305 114.532 107.314 114.532 107.322L114.532 107.322C114.532 107.387 114.545 107.438 114.549 107.506 114.571 108.303 114.887 109.022 115.397 109.561L115.397 109.561 115.444 109.673 119.049 113.278 113.269 119.057 109.698 115.452C109.664 115.418 109.613 115.435 109.579 115.401 109.052 114.909 108.354 114.596 107.579 114.562L107.571 114.562C107.485 114.558 107.417 114.541 107.331 114.541 107.322 114.541 107.318 114.541 107.31 114.541 106.774 114.541 106.269 114.678 105.832 114.917L105.85 114.909C104.39 115.739 102.694 116.463 100.918 116.981L100.746 117.024C100.674 117.045 100.626 117.096 100.558 117.122 100.344 117.208 100.16 117.302 99.9843 117.418L99.9972 117.409C99.1366 117.957 98.5501 118.865 98.4431 119.914L98.4431 119.926C98.4388 119.991 98.4045 120.046 98.4045 120.115L98.4045 125.214 90.2273 125.214 90.253 120.128C90.253 120.059 90.2188 119.999 90.2145 119.931 90.1931 119.695 90.1503 119.481 90.0818 119.276L90.0861 119.297C89.9148 118.496 89.4139 117.837 88.7375 117.456L88.7246 117.448C88.5363 117.319 88.3265 117.208 88.0996 117.122L88.0782 117.114C88.0182 117.092 87.9754 117.045 87.9112 117.028 85.9675 116.476 84.2721 115.752 82.6966 114.853L82.8122 114.913C82.3884 114.686 81.8875 114.553 81.3523 114.553 81.348 114.553 81.348 114.553 81.3438 114.553L81.3438 114.553C81.241 114.558 81.1383 114.566 81.0398 114.579L81.0526 114.579C80.2906 114.618 79.6056 114.922 79.0833 115.401L79.0875 115.397C79.049 115.431 78.9933 115.414 78.9548 115.452L75.3543 119.057 69.5746 113.278 73.188 109.698C73.2222 109.664 73.2094 109.609 73.2393 109.574 73.7274 109.048 74.0399 108.354 74.0742 107.588L74.0742 107.579C74.0785 107.489 74.0999 107.417 74.0956 107.327 74.0956 107.322 74.0956 107.318 74.0956 107.318 74.0956 106.779 73.9586 106.273 73.7188 105.828L73.7274 105.845C72.8926 104.385 72.1733 102.699 71.6553 100.922L71.6125 100.755C71.5953 100.686 71.544 100.644 71.5226 100.579 71.4327 100.353 71.3299 100.156 71.21 99.9715L71.2186 99.9843C71.1201 99.8045 71.0174 99.6504 70.8975 99.5091L70.9018 99.5134C70.4737 99.0253 69.8914 98.6785 69.2321 98.5544L69.215 98.5501C69.0994 98.5158 68.9581 98.4859 68.8125 98.4688L68.7954 98.4688C68.7012 98.4602 68.6199 98.4131 68.5257 98.4131L63.4267 98.4131 63.4267 90.2359 68.5257 90.2616C69.3391 90.2359 70.0712 89.9062 70.6107 89.3839L70.6107 89.3839C70.8333 89.1613 71.0174 88.8959 71.1501 88.6047L71.1587 88.5876C71.2999 88.3521 71.5397 88.198 71.6168 87.9197 72.1776 85.9718 72.8968 84.2807 73.7916 82.7009L73.7317 82.8165C73.9672 82.3884 74.1042 81.8789 74.1042 81.3395L74.1042 81.3395C74.1084 81.2581 74.0913 81.1939 74.087 81.1126 74.0613 80.3205 73.7445 79.6098 73.2393 79.0747L73.2393 79.0747 73.2008 78.9762 69.596 75.3628 75.3757 69.5832 78.9548 73.1965C79.0319 73.2736 79.1475 73.2436 79.2288 73.3121 79.7554 73.8045 80.4575 74.117 81.2282 74.1512L81.2367 74.1512C81.2367 74.1512 81.2367 74.1512 81.241 74.1512 81.819 74.1512 82.3584 73.9971 82.8251 73.7274L82.8079 73.736C84.2678 72.8968 85.9589 72.1776 87.7357 71.6638L87.8983 71.621C87.9626 71.6039 88.0097 71.5525 88.0739 71.5311 88.3008 71.4455 88.4934 71.3428 88.6732 71.2229L88.6604 71.2314C89.3711 70.8504 89.8848 70.1911 90.0647 69.4033L90.0689 69.3862C90.1332 69.1936 90.1802 68.9709 90.2017 68.7397L90.2017 68.7269C90.2059 68.6584 90.2402 68.6028 90.2402 68.5342L90.2402 63.4353 98.4174 63.4353 98.3917 68.5214C98.3917 68.5899 98.4259 68.6413 98.4302 68.7098 98.4559 68.9881 98.5116 69.2449 98.5972 69.489L98.5886 69.4676C98.6229 69.6003 98.6614 69.7073 98.7042 69.8143L98.6957 69.7972C99.0638 70.6792 99.8002 71.3513 100.708 71.621L100.729 71.6253C102.673 72.1819 104.36 72.9011 105.94 73.7959L105.824 73.736C106.273 73.9929 106.813 74.147 107.391 74.147 107.391 74.147 107.395 74.147 107.395 74.147L107.395 74.147C108.17 74.1127 108.868 73.8045 109.399 73.3121L109.399 73.3121C109.48 73.2479 109.596 73.2736 109.673 73.2008L113.278 69.596 119.057 75.3757 115.444 78.9505 115.397 79.0618C114.9 79.5884 114.588 80.2906 114.553 81.0655L114.553 81.074C114.549 81.1597 114.532 81.2282 114.532 81.3138 114.532 81.3181 114.532 81.3266 114.532 81.3309 114.532 81.8703 114.669 82.3798 114.909 82.8208L114.9 82.8037C115.739 84.2678 116.463 85.9589 116.977 87.7399L117.015 87.9026C117.028 87.954 117.084 87.9754 117.096 88.0225 117.293 88.609 117.64 89.1057 118.094 89.4738L118.098 89.4781C118.18 89.5381 118.27 89.6023 118.364 89.6579L118.377 89.6665C118.86 90.0133 119.455 90.2273 120.102 90.2445L120.106 90.2445 125.205 90.2445ZM94.3202 81.3609C94.3202 81.3609 94.3159 81.3609 94.3159 81.3609 87.162 81.3609 81.3609 87.162 81.3609 94.3159 81.3609 101.47 87.162 107.271 94.3159 107.271 101.47 107.271 107.271 101.474 107.271 94.3202L107.271 94.3202C107.262 87.1663 101.47 81.3694 94.3202 81.3609L94.3202 81.3609ZM94.3202 100.853C94.3202 100.853 94.3159 100.853 94.3159 100.853 90.7068 100.853 87.7827 97.9293 87.7827 94.3202 87.7827 90.7111 90.7068 87.787 94.3159 87.787 97.925 87.787 100.849 90.7111 100.849 94.3202 100.849 94.3202 100.849 94.3245 100.849 94.3245L100.849 94.3245C100.841 97.9293 97.9207 100.849 94.3202 100.853L94.3202 100.853Z" fill="#009145" transform="matrix(1.0073 0 0 1 408 375)"/></g></g></g><g><g><g><path d="M617.266 463.698 616.331 486.64 616.207 488.012 590.022 486.204C588.525 486.08 587.133 485.425 585.845 484.24 584.556 483.056 583.579 481.694 582.914 480.156 582.457 479.035 582.156 477.892 582.01 476.728 581.864 475.564 581.948 474.214 582.26 472.676 582.571 471.137 582.82 469.995 583.008 469.246 583.195 468.498 583.641 467.168 584.348 465.256 585.055 463.344 585.449 462.243 585.533 461.952 588.774 462.451 599.352 463.032 617.266 463.698ZM593.139 427.163 604.361 450.792 595.196 445.056C592.577 448.049 590.26 451.052 588.245 454.065 586.229 457.079 584.722 459.676 583.724 461.858 582.727 464.04 581.906 466.004 581.262 467.75 580.618 469.496 580.233 470.805 580.108 471.678L579.859 472.987 568.013 450.73C567.307 449.649 566.933 448.485 566.891 447.238 566.85 445.992 566.974 445.015 567.265 444.308L567.764 443.186C569.219 440.568 571.588 436.661 574.871 431.465L566.143 426.103ZM669.885 459.396 658.165 481.777C657.666 482.983 656.908 483.95 655.889 484.677 654.871 485.404 653.966 485.83 653.177 485.955L652.055 486.204C649.104 486.495 644.553 486.745 638.401 486.952L638.9 497.177 624.561 474.297 637.716 451.727 638.152 462.513C645.218 463.178 651.099 463.282 655.796 462.825 660.493 462.368 664.025 461.682 666.394 460.767ZM620.945 401.789C618.991 404.407 613.484 413.447 604.423 428.909L584.66 417.25 583.475 416.503 597.503 394.308C598.334 393.019 599.581 392.084 601.243 391.502 602.906 390.92 604.569 390.712 606.231 390.878 607.229 390.961 608.237 391.211 609.255 391.626 610.273 392.042 611.146 392.478 611.873 392.936 612.601 393.393 613.463 394.079 614.461 394.993 615.458 395.907 616.206 396.624 616.705 397.144 617.204 397.663 617.952 398.484 618.95 399.607 619.947 400.729 620.612 401.456 620.945 401.789ZM661.781 420.929 674.998 443.56C675.746 445.098 676.005 446.677 675.777 448.298 675.548 449.919 674.977 451.457 674.062 452.912 673.522 453.743 672.835 454.512 672.005 455.219 671.173 455.925 670.384 456.507 669.635 456.964 668.888 457.421 667.88 457.879 666.612 458.336 665.345 458.793 664.367 459.126 663.682 459.333 662.996 459.541 661.926 459.832 660.471 460.207 659.016 460.581 658.061 460.83 657.603 460.954 656.19 457.962 650.683 448.901 641.082 433.772L660.596 421.615ZM652.866 406.839 661.719 401.664 648.002 424.919 621.88 423.672 631.294 418.31C629.881 414.611 628.322 411.161 626.618 407.961 624.914 404.761 623.345 402.194 621.911 400.261 620.477 398.329 619.136 396.666 617.89 395.274 616.643 393.881 615.666 392.915 614.959 392.375L613.9 391.565 639.149 391.629C640.438 391.504 641.643 391.723 642.765 392.283 643.888 392.845 644.698 393.437 645.197 394.06L645.883 394.995C647.503 397.531 649.831 401.479 652.866 406.841Z" fill="#009145"/></g></g></g><text fill="#009145" font-family="Aptos,Aptos_MSFontService,sans-serif" font-weight="400" font-size="106.667" transform="translate(172.82 348)">F</text><text fill="#009145" font-family="Aptos,Aptos_MSFontService,sans-serif" font-weight="400" font-size="106.667" transform="translate(307.835 348)">A</text><text fill="#009145" font-family="Aptos,Aptos_MSFontService,sans-serif" font-weight="400" font-size="106.667" transform="translate(463.768 348)">I</text><text fill="#009145" font-family="Aptos,Aptos_MSFontService,sans-serif" font-weight="400" font-size="106.667" transform="translate(583.783 348)">R</text></g></svg>