<svg width="1280" height="720" xmlns="http://www.w3.org/2000/svg" xmlns:xlink="http://www.w3.org/1999/xlink" overflow="hidden"><defs><clipPath id="clip0"><rect x="0" y="0" width="1280" height="720"/></clipPath></defs><g clip-path="url(#clip0)"><rect x="0" y="0" width="1280" height="720" fill="#FFFFFF"/><path d="M1083.46 446.301 574.857 49.2593 608.755 12.1916Z" fill="#E3EEC9" fill-rule="evenodd"/><path d="M1084.17 423.033 630.416 8.13458 667.226-26.0423Z" fill="#E3EEC9" fill-rule="evenodd"/><path d="M1095.31 469.746C1104.87 476.894 1106.83 490.442 1099.68 500.007L1098.14 502.076C1090.99 511.641 1077.44 513.601 1067.88 506.454L512.029 91.0915C502.464 83.9441 500.504 70.3959 507.652 60.8309L509.198 58.7612C516.346 49.1962 529.894 47.2363 539.459 54.3838Z" fill="#E3EEC9" fill-rule="evenodd"/><path d="M0 50.2301 643.269 0 643.269 50.2301Z" fill="#E3EEC9" fill-rule="evenodd" transform="matrix(0.737957 -0.674848 -0.674848 -0.737957 1119.76 483.368)"/><path d="M0 50.2301 612.793 0 612.793 50.2301Z" fill="#E3EEC9" fill-rule="evenodd" transform="matrix(0.680407 -0.732835 -0.732835 -0.680407 1121.96 457.21)"/><path d="M1305.05 315.216C1315.04 308.558 1328.53 311.255 1335.19 321.242L1335.19 321.242C1341.85 331.228 1339.15 344.721 1329.16 351.379L1095.26 507.339C1085.27 513.998 1071.78 511.3 1065.12 501.314L1065.12 501.314C1058.46 491.328 1061.16 477.835 1071.14 471.176Z" fill="#E3EEC9" fill-rule="evenodd"/><path d="M618.116 113.602 590.686 150.309 489.742 74.8776 517.172 38.1699Z" fill="#E3EEC9" fill-rule="evenodd"/><path d="M552 399 552 463.5C552 499.122 487.529 528 408 528 328.471 528 264 499.122 264 463.5L264 399Z" stroke="#009145" stroke-width="8" stroke-miterlimit="8" fill="none" fill-rule="evenodd"/><path d="M552 326 552 390.5C552 426.122 487.529 455 408 455 328.471 455 264 426.122 264 390.5L264 326Z" stroke="#009145" stroke-width="8" stroke-miterlimit="8" fill="#FFFFFF" fill-rule="evenodd"/><path d="M552 253 552 317.5C552 353.122 487.529 382 408 382 328.471 382 264 353.122 264 317.5L264 253Z" stroke="#009145" stroke-width="8" stroke-miterlimit="8" fill="#FFFFFF" fill-rule="evenodd"/><path d="M264 247.5C264 213.534 328.471 186 408 186 487.529 186 552 213.534 552 247.5 552 281.466 487.529 309 408 309 328.471 309 264 281.466 264 247.5Z" stroke="#009145" stroke-width="8" stroke-miterlimit="8" fill="#FFFFFF" fill-rule="evenodd"/><g><g><g><path d="M39.8125 79.625C36.6714 79.625 34.125 82.1714 34.125 85.3125L34.125 153.562C34.125 156.704 36.6714 159.25 39.8125 159.25L142.188 159.25C145.329 159.25 147.875 156.704 147.875 153.562L147.875 85.3125C147.875 82.1714 145.329 79.625 142.188 79.625L39.8125 79.625ZM39.8125 68.25 142.188 68.25C151.611 68.25 159.25 75.8892 159.25 85.3125L159.25 153.562C159.25 162.986 151.611 170.625 142.188 170.625L39.8125 170.625C30.3892 170.625 22.75 162.986 22.75 153.562L22.75 85.3125C22.75 75.8892 30.3892 68.25 39.8125 68.25Z" fill="#FFFFFF" transform="matrix(1 0 0 1.00549 441 366)"/><path d="M91 96.6875C94.1411 96.6875 96.6875 99.2339 96.6875 102.375L96.6875 136.5C96.6875 139.641 94.1411 142.188 91 142.188 87.8589 142.188 85.3125 139.641 85.3125 136.5L85.3125 102.375C85.3125 99.2339 87.8589 96.6875 91 96.6875ZM122.691 44.2033C115.668 26.7073 95.791 18.2172 78.295 25.2402 65.3702 30.4283 56.8933 42.9479 56.875 56.875L56.875 68.25 119.438 68.25 136.5 75.075 136.5 79.625 45.5 79.625 45.5 56.875C45.4801 31.746 65.8349 11.3588 90.9639 11.3389 109.594 11.3241 126.352 22.6686 133.258 39.9717L122.691 44.2033Z" fill="#FFFFFF" transform="matrix(1 0 0 1.00549 441 366)"/></g></g></g><path d="M455 421.667C455 409.148 465.148 399 477.667 399L568.333 399C580.852 399 591 409.148 591 421.667L591 518.333C591 530.852 580.852 541 568.333 541L477.667 541C465.148 541 455 530.852 455 518.333Z" stroke="#FFFFFF" stroke-width="2" stroke-miterlimit="8" fill="#FFFFFF" fill-rule="evenodd"/><g><g><g><path d="M480.812 453.625C477.671 453.625 475.125 456.171 475.125 459.312L475.125 527.562C475.125 530.704 477.671 533.25 480.812 533.25L583.188 533.25C586.329 533.25 588.875 530.704 588.875 527.562L588.875 459.312C588.875 456.171 586.329 453.625 583.188 453.625L480.812 453.625ZM480.812 442.25 583.188 442.25C592.611 442.25 600.25 449.889 600.25 459.312L600.25 527.562C600.25 536.986 592.611 544.625 583.188 544.625L480.812 544.625C471.389 544.625 463.75 536.986 463.75 527.562L463.75 459.312C463.75 449.889 471.389 442.25 480.812 442.25Z" fill="#009145"/><path d="M532 470.688C535.141 470.688 537.688 473.234 537.688 476.375L537.688 510.5C537.688 513.641 535.141 516.188 532 516.188 528.859 516.188 526.312 513.641 526.312 510.5L526.312 476.375C526.312 473.234 528.859 470.688 532 470.688ZM563.691 418.203C556.668 400.707 536.791 392.217 519.295 399.24 506.37 404.428 497.893 416.948 497.875 430.875L497.875 442.25 560.438 442.25 577.5 449.075 577.5 453.625 486.5 453.625 486.5 430.875C486.48 405.746 506.835 385.359 531.964 385.339 550.594 385.324 567.352 396.669 574.258 413.972L563.691 418.203Z" fill="#009145"/></g></g></g></g></svg>