<svg width="1280" height="720" xmlns="http://www.w3.org/2000/svg" xmlns:xlink="http://www.w3.org/1999/xlink" overflow="hidden"><defs><clipPath id="clip0"><rect x="0" y="0" width="1280" height="720"/></clipPath></defs><g clip-path="url(#clip0)"><rect x="0" y="0" width="1280" height="720" fill="#FFFFFF"/><path d="M1083.46 446.301 574.857 49.2593 608.755 12.1916Z" fill="#E3EEC9" fill-rule="evenodd"/><path d="M1084.17 423.033 630.416 8.13458 667.226-26.0423Z" fill="#E3EEC9" fill-rule="evenodd"/><path d="M1095.31 469.746C1104.87 476.894 1106.83 490.442 1099.68 500.007L1098.14 502.076C1090.99 511.641 1077.44 513.601 1067.88 506.454L512.029 91.0915C502.464 83.9441 500.504 70.3959 507.652 60.8309L509.198 58.7612C516.346 49.1962 529.894 47.2363 539.459 54.3838Z" fill="#E3EEC9" fill-rule="evenodd"/><path d="M0 50.2301 643.269 0 643.269 50.2301Z" fill="#E3EEC9" fill-rule="evenodd" transform="matrix(0.737957 -0.674848 -0.674848 -0.737957 1119.76 483.368)"/><path d="M0 50.2301 612.793 0 612.793 50.2301Z" fill="#E3EEC9" fill-rule="evenodd" transform="matrix(0.680407 -0.732835 -0.732835 -0.680407 1121.96 457.21)"/><path d="M1305.05 315.216C1315.04 308.558 1328.53 311.255 1335.19 321.242L1335.19 321.242C1341.85 331.228 1339.15 344.721 1329.16 351.379L1095.26 507.339C1085.27 513.998 1071.78 511.3 1065.12 501.314L1065.12 501.314C1058.46 491.328 1061.16 477.835 1071.14 471.176Z" fill="#E3EEC9" fill-rule="evenodd"/><path d="M618.116 113.602 590.686 150.309 489.742 74.8776 517.172 38.1699Z" fill="#E3EEC9" fill-rule="evenodd"/><path d="M511 399 511 463.5C511 499.122 446.753 528 367.5 528 288.247 528 224 499.122 224 463.5L224 399Z" stroke="#009145" stroke-width="8" stroke-miterlimit="8" fill="none" fill-rule="evenodd"/><path d="M511 326 511 390.5C511 426.122 446.753 455 367.5 455 288.247 455 224 426.122 224 390.5L224 326Z" stroke="#009145" stroke-width="8" stroke-miterlimit="8" fill="#FFFFFF" fill-rule="evenodd"/><path d="M511 253 511 317.5C511 353.122 446.753 382 367.5 382 288.247 382 224 353.122 224 317.5L224 253Z" stroke="#009145" stroke-width="8" stroke-miterlimit="8" fill="#FFFFFF" fill-rule="evenodd"/><path d="M224 247.5C224 213.534 288.247 186 367.5 186 446.753 186 511 213.534 511 247.5 511 281.466 446.753 309 367.5 309 288.247 309 224 281.466 224 247.5Z" stroke="#009145" stroke-width="8" stroke-miterlimit="8" fill="#FFFFFF" fill-rule="evenodd"/><g><g><g><path d="M440.031 446.062C436.873 446.062 434.312 448.623 434.312 451.781L434.312 520.406C434.312 523.565 436.873 526.125 440.031 526.125L542.969 526.125C546.127 526.125 548.688 523.565 548.688 520.406L548.688 451.781C548.688 448.623 546.127 446.062 542.969 446.062L440.031 446.062ZM440.031 434.625 542.969 434.625C552.444 434.625 560.125 442.306 560.125 451.781L560.125 520.406C560.125 529.881 552.444 537.562 542.969 537.562L440.031 537.562C430.556 537.562 422.875 529.881 422.875 520.406L422.875 451.781C422.875 442.306 430.556 434.625 440.031 434.625Z" fill="#FFFFFF"/><path d="M491.5 463.219C494.658 463.219 497.219 465.779 497.219 468.938L497.219 503.25C497.219 506.408 494.658 508.969 491.5 508.969 488.342 508.969 485.781 506.408 485.781 503.25L485.781 468.938C485.781 465.779 488.342 463.219 491.5 463.219ZM523.365 410.446C516.303 392.854 496.317 384.317 478.725 391.379 465.729 396.595 457.206 409.184 457.188 423.188L457.188 434.625 520.094 434.625 537.25 441.487 537.25 446.062 445.75 446.062 445.75 423.188C445.73 397.92 466.197 377.421 491.464 377.401 510.197 377.386 527.046 388.793 533.99 406.191L523.365 410.446Z" fill="#FFFFFF"/></g></g></g><path d="M414 421.667C414 409.148 424.148 399 436.667 399L527.333 399C539.852 399 550 409.148 550 421.667L550 518.333C550 530.852 539.852 541 527.333 541L436.667 541C424.148 541 414 530.852 414 518.333Z" stroke="#FFFFFF" stroke-width="2" stroke-miterlimit="8" fill="#FFFFFF" fill-rule="evenodd"/><g><g><g><path d="M39.8125 79.625C36.6714 79.625 34.125 82.1714 34.125 85.3125L34.125 153.562C34.125 156.704 36.6714 159.25 39.8125 159.25L142.188 159.25C145.329 159.25 147.875 156.704 147.875 153.562L147.875 85.3125C147.875 82.1714 145.329 79.625 142.188 79.625L39.8125 79.625ZM39.8125 68.25 142.188 68.25C151.611 68.25 159.25 75.8892 159.25 85.3125L159.25 153.562C159.25 162.986 151.611 170.625 142.188 170.625L39.8125 170.625C30.3892 170.625 22.75 162.986 22.75 153.562L22.75 85.3125C22.75 75.8892 30.3892 68.25 39.8125 68.25Z" fill="#009145" transform="matrix(1.00549 0 0 1 400 374)"/><path d="M91 96.6875C94.1411 96.6875 96.6875 99.2339 96.6875 102.375L96.6875 136.5C96.6875 139.641 94.1411 142.188 91 142.188 87.8589 142.188 85.3125 139.641 85.3125 136.5L85.3125 102.375C85.3125 99.2339 87.8589 96.6875 91 96.6875ZM122.691 44.2033C115.668 26.7073 95.791 18.2172 78.295 25.2402 65.3702 30.4283 56.8933 42.9479 56.875 56.875L56.875 68.25 119.438 68.25 136.5 75.075 136.5 79.625 45.5 79.625 45.5 56.875C45.4801 31.746 65.8349 11.3588 90.9639 11.3389 109.594 11.3241 126.352 22.6686 133.258 39.9717L122.691 44.2033Z" fill="#009145" transform="matrix(1.00549 0 0 1 400 374)"/></g></g></g></g></svg>