<svg width="1280" height="720" xmlns="http://www.w3.org/2000/svg" xmlns:xlink="http://www.w3.org/1999/xlink" overflow="hidden"><defs><clipPath id="clip0"><rect x="0" y="0" width="1280" height="720"/></clipPath><clipPath id="clip1"><rect x="201" y="400" width="492" height="172"/></clipPath><clipPath id="clip2"><rect x="201" y="400" width="492" height="172"/></clipPath><clipPath id="clip3"><rect x="201" y="400" width="492" height="172"/></clipPath></defs><g clip-path="url(#clip0)"><rect x="0" y="0" width="1280" height="720" fill="#FFFFFF"/><path d="M1083.46 446.301 574.857 49.2593 608.755 12.1916Z" fill="#E3EEC9" fill-rule="evenodd"/><path d="M1084.17 423.033 630.416 8.13458 667.226-26.0423Z" fill="#E3EEC9" fill-rule="evenodd"/><path d="M1095.31 469.746C1104.87 476.894 1106.83 490.442 1099.68 500.007L1098.14 502.076C1090.99 511.641 1077.44 513.601 1067.88 506.454L512.029 91.0915C502.464 83.9441 500.504 70.3959 507.652 60.8309L509.198 58.7612C516.346 49.1962 529.894 47.2363 539.459 54.3838Z" fill="#E3EEC9" fill-rule="evenodd"/><path d="M0 50.2301 643.269 0 643.269 50.2301Z" fill="#E3EEC9" fill-rule="evenodd" transform="matrix(0.737957 -0.674848 -0.674848 -0.737957 1119.76 483.368)"/><path d="M0 50.2301 612.793 0 612.793 50.2301Z" fill="#E3EEC9" fill-rule="evenodd" transform="matrix(0.680407 -0.732835 -0.732835 -0.680407 1121.96 457.21)"/><path d="M1305.05 315.216C1315.04 308.558 1328.53 311.255 1335.19 321.242L1335.19 321.242C1341.85 331.228 1339.15 344.721 1329.16 351.379L1095.26 507.339C1085.27 513.998 1071.78 511.3 1065.12 501.314L1065.12 501.314C1058.46 491.328 1061.16 477.835 1071.14 471.176Z" fill="#E3EEC9" fill-rule="evenodd"/><path d="M618.116 113.602 590.686 150.309 489.742 74.8776 517.172 38.1699Z" fill="#E3EEC9" fill-rule="evenodd"/><g><g><g><path d="M461 172C398.015 172 347 223.015 347 286 347 336.445 379.633 379.052 424.948 394.158 430.647 395.155 432.785 391.735 432.785 388.742 432.785 386.035 432.643 377.057 432.643 367.51 404 372.783 396.59 360.527 394.31 354.115 393.027 350.838 387.47 340.72 382.625 338.013 378.635 335.875 372.935 330.603 382.483 330.46 391.46 330.318 397.872 338.725 400.01 342.145 410.27 359.388 426.658 354.543 433.212 351.55 434.21 344.14 437.203 339.152 440.48 336.302 415.115 333.453 388.61 323.62 388.61 280.015 388.61 267.617 393.027 257.357 400.295 249.378 399.155 246.527 395.165 234.842 401.435 219.167 401.435 219.167 410.982 216.175 432.785 230.853 441.905 228.288 451.595 227.005 461.285 227.005 470.975 227.005 480.665 228.288 489.785 230.853 511.588 216.033 521.135 219.167 521.135 219.167 527.405 234.842 523.415 246.527 522.275 249.378 529.542 257.357 533.96 267.475 533.96 280.015 533.96 323.763 507.312 333.453 481.948 336.302 486.08 339.865 489.643 346.705 489.643 357.393 489.643 372.64 489.5 384.895 489.5 388.742 489.5 391.735 491.638 395.297 497.338 394.158 542.367 379.052 575 336.302 575 286 575 223.015 523.985 172 461 172Z" fill="#1B1F23" fill-rule="evenodd"/></g></g></g><g clip-path="url(#clip1)"><g clip-path="url(#clip2)"><g clip-path="url(#clip3)"><path d="M172.997 86.1267C172.997 133.222 134.818 171.4 87.7232 171.4 40.628 171.4 2.44976 133.222 2.44976 86.1267 2.44976 39.0315 40.628 0.853291 87.7232 0.853291 134.818 0.853291 172.997 39.0315 172.997 86.1267Z" fill="#75AADB" transform="matrix(0.708426 -0.705795 0.708426 0.705795 165.722 487.121)"/><path d="M190.783 111.217C195.206 114.047 201.525 116.19 208.339 116.19 218.422 116.19 224.302 110.86 224.302 103.167 224.302 96.1607 220.236 91.9572 209.933 88.1107 197.487 83.5774 189.794 77.011 189.794 66.3784 189.794 54.4819 199.63 45.6626 214.466 45.6626 222.159 45.6626 227.928 47.4759 231.225 49.3992L228.505 57.4492C226.115 55.9656 221.032 53.8225 214.136 53.8225 203.723 53.8225 199.767 60.0593 199.767 65.2519 199.767 72.3953 204.41 75.8846 214.933 79.9783 227.846 84.9512 234.303 91.1879 234.303 102.397 234.303 114.157 225.703 124.459 207.707 124.459 200.344 124.459 192.321 122.207 188.228 119.487L190.783 111.217Z" fill="#4D4D4D" transform="matrix(1.00373 0 0 1 201 400.019)"/><path d="M259.167 55.3062 259.167 68.439 273.426 68.439 273.426 76.0219 259.167 76.0219 259.167 105.557C259.167 112.343 261.09 116.19 266.64 116.19 269.36 116.19 270.954 115.97 272.41 115.503L272.849 123.086C270.926 123.773 267.876 124.432 264.03 124.432 259.387 124.432 255.65 122.838 253.287 120.256 250.567 117.206 249.441 112.343 249.441 105.887L249.441 76.0219 240.951 76.0219 240.951 68.439 249.441 68.439 249.441 58.2459 259.167 55.3062Z" fill="#4D4D4D" transform="matrix(1.00373 0 0 1 201 400.019)"/><path d="M330.463 108.167C330.463 113.937 330.573 118.91 330.903 123.223L322.084 123.223 321.507 114.294 321.287 114.294C318.787 118.717 312.907 124.487 303.181 124.487 294.582 124.487 284.279 119.624 284.279 100.502L284.279 68.439 294.252 68.439 294.252 98.6609C294.252 109.074 297.521 116.217 306.478 116.217 313.154 116.217 317.798 111.574 319.611 107.041 320.188 105.694 320.517 103.881 320.517 101.958L320.517 68.439 330.491 68.439 330.491 108.167Z" fill="#4D4D4D" transform="matrix(1.00373 0 0 1 201 400.019)"/><path d="M394.204 42.8602 394.204 109.074C394.204 113.937 394.424 119.487 394.644 123.223L385.824 123.223 385.385 113.717 385.055 113.717C382.115 119.816 375.549 124.459 366.592 124.459 353.35 124.459 343.047 113.25 343.047 96.6003 342.937 78.3847 354.366 67.285 367.609 67.285 376.098 67.285 381.648 71.2414 384.148 75.5549L384.368 75.5549 384.368 42.8602 394.204 42.8602ZM384.341 90.7208C384.341 89.4844 384.231 87.781 383.901 86.5447 382.418 80.308 377.005 75.1153 369.532 75.1153 359.229 75.1153 353.13 84.1819 353.13 96.1607 353.13 107.26 358.68 116.437 369.312 116.437 375.989 116.437 382.115 111.904 383.901 104.54 384.231 103.194 384.341 101.82 384.341 100.227L384.341 90.7208Z" fill="#4D4D4D" transform="matrix(1.00373 0 0 1 201 400.019)"/><path d="M421.926 53.0258C421.926 56.4326 419.536 59.1251 415.579 59.1251 411.953 59.1251 409.59 56.4051 409.59 53.0258 409.59 49.6189 412.09 46.7891 415.827 46.7891 419.426 46.8165 421.926 49.5365 421.926 53.0258ZM410.826 123.223 410.826 68.439 420.799 68.439 420.799 123.223 410.826 123.223Z" fill="#4D4D4D" transform="matrix(1.00373 0 0 1 201 400.019)"/><path d="M486.903 95.364C486.903 115.613 472.754 124.459 459.621 124.459 444.895 124.459 433.355 113.58 433.355 96.2706 433.355 78.0551 445.472 67.285 460.528 67.285 476.27 67.3125 486.903 78.7419 486.903 95.364ZM443.548 95.941C443.548 107.947 450.335 116.986 460.088 116.986 469.594 116.986 476.737 108.057 476.737 95.6937 476.737 86.4073 472.094 74.7581 460.335 74.7581 448.631 74.7581 443.548 85.638 443.548 95.941Z" fill="#4D4D4D" transform="matrix(1.00373 0 0 1 201 400.019)"/><path d="M116.684 113.14 125.916 113.14 125.916 120.311 111.821 120.311 88.4679 85.3083 76.0219 85.3083 76.0219 113.14 88.1931 113.14 88.1931 120.311 57.5591 120.311 57.5591 113.14 68.0818 113.14 68.0818 51.4597 57.5591 50.1684 57.5591 43.3822C61.5429 44.2889 65.0047 44.9208 69.3456 44.9208 75.8846 44.9208 82.5609 43.3822 89.0998 43.3822 101.793 43.3822 113.58 49.1519 113.58 63.2463 113.58 74.1537 107.041 81.0772 96.9026 84.017L116.684 113.14ZM76.0219 78.3847 82.6982 78.5221C98.9906 78.7694 105.255 72.5052 105.255 64.153 105.255 54.3995 98.1939 50.5531 89.2372 50.5531 85.0061 50.5531 80.6377 50.9377 76.0219 51.4597L76.0219 78.3847Z" fill="#FFFFFF" transform="matrix(1.00373 0 0 1 201 400.019)"/><path d="M481.298 46.8165C477.754 46.8165 474.869 49.7014 474.869 53.2456 474.869 56.7898 477.754 59.6746 481.298 59.6746 484.842 59.6746 487.727 56.7898 487.727 53.2456 487.727 49.7014 484.842 46.8165 481.298 46.8165ZM486.683 53.2456C486.683 56.2128 484.266 58.6031 481.326 58.6031 478.358 58.6031 475.968 56.1853 475.968 53.2456 475.968 50.2783 478.386 47.8881 481.326 47.8881 484.266 47.8606 486.683 50.2783 486.683 53.2456Z" fill="#4D4D4D" transform="matrix(1.00373 0 0 1 201 400.019)"/><path d="M483.579 55.8557 481.985 53.5203C482.892 53.1906 483.359 52.5312 483.359 51.5971 483.359 50.1959 482.177 49.7014 481.051 49.7014 480.749 49.7014 480.447 49.7288 480.172 49.7838 479.897 49.8113 479.595 49.8387 479.32 49.8387 478.935 49.8387 478.633 49.7838 478.304 49.7014L478.139 49.6739 478.139 50.5806 479.073 50.6904 479.073 55.8557 478.139 55.8557 478.139 56.7898 481.133 56.7898 481.133 55.8557 480.062 55.8557 480.062 53.6852 480.941 53.6852 482.947 56.7074 483.002 56.7623 484.458 56.7623 484.458 55.8282 483.579 55.8282ZM482.342 51.6795C482.342 52.0092 482.205 52.284 481.958 52.4763 481.655 52.6961 481.188 52.806 480.584 52.806L480.062 52.806 480.062 50.6904C480.447 50.663 480.776 50.6355 481.078 50.6355 481.655 50.6355 482.342 50.8278 482.342 51.6795Z" fill="#4D4D4D" transform="matrix(1.00373 0 0 1 201 400.019)"/></g></g></g></g></svg>