<svg width="1280" height="720" xmlns="http://www.w3.org/2000/svg" xmlns:xlink="http://www.w3.org/1999/xlink" overflow="hidden"><defs><clipPath id="clip0"><rect x="0" y="0" width="1280" height="720"/></clipPath></defs><g clip-path="url(#clip0)"><rect x="0" y="0" width="1280" height="720" fill="#FFFFFF"/><path d="M485.964 69.4548 511.948 34.7592 1065.65 449.434 1039.67 484.129Z" fill="#009145" fill-rule="evenodd"/><path d="M1016.72 467.226C1007.19 460.308 1005.07 446.971 1011.99 437.436L1011.99 437.436C1018.91 427.902 1032.24 425.781 1041.78 432.699L1095.13 471.409C1104.66 478.327 1106.78 491.664 1099.86 501.198L1099.86 501.198C1092.95 510.733 1079.61 512.854 1070.07 505.936Z" fill="#009145" fill-rule="evenodd"/><path d="M1306.22 312.691C1316.2 306.033 1329.7 308.73 1336.36 318.717L1336.36 318.717C1343.02 328.703 1340.32 342.196 1330.33 348.855L1096.43 504.815C1086.44 511.473 1072.95 508.775 1066.29 498.789L1066.29 498.789C1059.63 488.803 1062.33 475.31 1072.31 468.651Z" fill="#009145" fill-rule="evenodd"/><path d="M1090.6 446.301 582.002 49.2593 615.899 12.1916Z" fill="#B9D478" fill-rule="evenodd"/><path d="M1091.32 423.033 637.56 8.13458 674.37-26.0423Z" fill="#B9D478" fill-rule="evenodd"/><path d="M0 50.2301 643.269 0 643.269 50.2301Z" fill="#B9D478" fill-rule="evenodd" transform="matrix(0.737957 -0.674848 -0.674848 -0.737957 1125.22 479.734)"/><path d="M0 50.2301 624.025 0 624.025 50.2301Z" fill="#B9D478" fill-rule="evenodd" transform="matrix(0.680407 -0.732835 -0.732835 -0.680407 1127.34 458.901)"/><path d="M0 0 180.361 82.7573" stroke="#009145" stroke-width="8" stroke-miterlimit="8" fill="none" fill-rule="evenodd" transform="matrix(1 0 0 -1 275 365.757)"/><path d="M0 0 171.411 78.5818" stroke="#009145" stroke-width="8" stroke-miterlimit="8" fill="none" fill-rule="evenodd" transform="matrix(1 0 0 -1 366 404.582)"/><path d="M0 0 88.5945 38.9894" stroke="#009145" stroke-width="8" stroke-miterlimit="8" fill="none" fill-rule="evenodd" transform="matrix(1 0 0 -1 362 509.989)"/><path d="M0 0 82.3663 37.499" stroke="#009145" stroke-width="8" stroke-miterlimit="8" fill="none" fill-rule="evenodd" transform="matrix(1 0 0 -1 544 408.499)"/><path d="M0 0 89.077 39.4017" stroke="#009145" stroke-width="8" stroke-miterlimit="8" fill="none" fill-rule="evenodd" transform="matrix(1 0 0 -1 541 515.402)"/><path d="M451 283 629.628 371.245" stroke="#009145" stroke-width="8" stroke-miterlimit="8" fill="none" fill-rule="evenodd"/><path d="M369 323 545.313 411.245" stroke="#009145" stroke-width="8" stroke-miterlimit="8" fill="none" fill-rule="evenodd"/><path d="M273 465 364.477 509.579" stroke="#009145" stroke-width="8" stroke-miterlimit="8" fill="none" fill-rule="evenodd"/><path d="M451 471 544.395 515.579" stroke="#009145" stroke-width="8" stroke-miterlimit="8" fill="none" fill-rule="evenodd"/><path d="M277 362 365.156 406.122" stroke="#009145" stroke-width="8" stroke-miterlimit="8" fill="none" fill-rule="evenodd"/><path d="M363 405 363.641 510.907" stroke="#009145" stroke-width="8" stroke-miterlimit="8" fill="none" fill-rule="evenodd"/><path d="M0 0 1.02152 106.921" stroke="#009145" stroke-width="8" stroke-miterlimit="8" fill="none" fill-rule="evenodd" transform="matrix(-1 0 0 1 277.022 362)"/><path d="M452 367 452.349 476.282" stroke="#009145" stroke-width="8" stroke-miterlimit="8" fill="none" fill-rule="evenodd"/><path d="M543 405 543.349 514.282" stroke="#009145" stroke-width="8" stroke-miterlimit="8" fill="none" fill-rule="evenodd"/><path d="M628 367 628.717 480.064" stroke="#009145" stroke-width="8" stroke-miterlimit="8" fill="none" fill-rule="evenodd"/><path d="M247 156 279.749 261.135" stroke="#009145" stroke-width="8" stroke-miterlimit="8" fill="none" fill-rule="evenodd"/><path d="M345 170 376.687 272.545" stroke="#009145" stroke-width="8" stroke-miterlimit="8" fill="none" fill-rule="evenodd"/><path d="M417 109 449.468 211.283" stroke="#009145" stroke-width="8" stroke-miterlimit="8" fill="none" fill-rule="evenodd"/><path d="M379.042 273.885 276 258" stroke="#009145" stroke-width="8" stroke-miterlimit="8" fill="none" fill-rule="evenodd"/><path d="M344.98 170.904 248 156" stroke="#009145" stroke-width="8" stroke-miterlimit="8" fill="none" fill-rule="evenodd"/><path d="M420.097 112.146 316 94" stroke="#009145" stroke-width="8" stroke-miterlimit="8" fill="none" fill-rule="evenodd"/><path d="M0 0 74.3765 67.957" stroke="#009145" stroke-width="8" stroke-miterlimit="8" fill="none" fill-rule="evenodd" transform="matrix(-1 0 0 1 449.376 208)"/><path d="M0 0 73.6388 67.353" stroke="#009145" stroke-width="8" stroke-miterlimit="8" fill="none" fill-rule="evenodd" transform="matrix(-1 0 0 1 319.639 93)"/><path d="M0 0 70.7166 59.5858" stroke="#009145" stroke-width="8" stroke-miterlimit="8" fill="none" fill-rule="evenodd" transform="matrix(-1 0 0 1 416.717 111)"/><text font-family="Arial,Arial_MSFontService,sans-serif" font-weight="700" font-size="53.3333" transform="translate(249.586 637)">COLLECTION OF TUTORIALS</text></g></svg>