<svg width="1280" height="720" xmlns="http://www.w3.org/2000/svg" xmlns:xlink="http://www.w3.org/1999/xlink" overflow="hidden"><defs><clipPath id="clip0"><rect x="0" y="0" width="1280" height="720"/></clipPath></defs><g clip-path="url(#clip0)"><rect x="0" y="0" width="1280" height="720" fill="#FFFFFF"/><path d="M1083.46 446.301 574.857 49.2593 608.755 12.1916Z" fill="#E3EEC9" fill-rule="evenodd"/><path d="M1084.17 423.033 630.416 8.13458 667.226-26.0423Z" fill="#E3EEC9" fill-rule="evenodd"/><path d="M1095.31 469.746C1104.87 476.894 1106.83 490.442 1099.68 500.007L1098.14 502.076C1090.99 511.641 1077.44 513.601 1067.88 506.454L512.029 91.0915C502.464 83.9441 500.504 70.3959 507.652 60.8309L509.198 58.7612C516.346 49.1962 529.894 47.2363 539.459 54.3838Z" fill="#E3EEC9" fill-rule="evenodd"/><path d="M0 50.2301 643.269 0 643.269 50.2301Z" fill="#E3EEC9" fill-rule="evenodd" transform="matrix(0.737957 -0.674848 -0.674848 -0.737957 1119.76 483.368)"/><path d="M0 50.2301 612.793 0 612.793 50.2301Z" fill="#E3EEC9" fill-rule="evenodd" transform="matrix(0.680407 -0.732835 -0.732835 -0.680407 1121.96 457.21)"/><path d="M1305.05 315.216C1315.04 308.558 1328.53 311.255 1335.19 321.242L1335.19 321.242C1341.85 331.228 1339.15 344.721 1329.16 351.379L1095.26 507.339C1085.27 513.998 1071.78 511.3 1065.12 501.314L1065.12 501.314C1058.46 491.328 1061.16 477.835 1071.14 471.176Z" fill="#E3EEC9" fill-rule="evenodd"/><path d="M618.116 113.602 590.686 150.309 489.742 74.8776 517.172 38.1699Z" fill="#E3EEC9" fill-rule="evenodd"/><path d="M513 399 513 463.5C513 499.122 448.529 528 369 528 289.471 528 225 499.122 225 463.5L225 399Z" stroke="#009145" stroke-width="8" stroke-miterlimit="8" fill="none" fill-rule="evenodd"/><path d="M513 326 513 390.5C513 426.122 448.529 455 369 455 289.471 455 225 426.122 225 390.5L225 326Z" stroke="#009145" stroke-width="8" stroke-miterlimit="8" fill="#FFFFFF" fill-rule="evenodd"/><path d="M513 253 513 317.5C513 353.122 448.529 382 369 382 289.471 382 225 353.122 225 317.5L225 253Z" stroke="#009145" stroke-width="8" stroke-miterlimit="8" fill="#FFFFFF" fill-rule="evenodd"/><path d="M225 247.5C225 213.534 289.471 186 369 186 448.529 186 513 213.534 513 247.5 513 281.466 448.529 309 369 309 289.471 309 225 281.466 225 247.5Z" stroke="#009145" stroke-width="8" stroke-miterlimit="8" fill="#FFFFFF" fill-rule="evenodd"/><path d="M398 483C398 437.713 434.713 401 480 401 525.287 401 562 437.713 562 483 562 528.287 525.287 565 480 565 434.713 565 398 528.287 398 483Z" stroke="#009145" stroke-width="8" stroke-miterlimit="8" fill="#FFFFFF" fill-rule="evenodd"/><g><g><g><path d="M514.173 460.331C513.88 458.299 513.551 456.086 513.221 453.835 511.757 444.082 510.074 433.413 509.506 431.876 508.427 428.948 504.914 420.696 492.452 425.38 488.518 426.862 487.749 428.363 482.04 427.613 477.722 427.046 474.958 423.716 468.956 421.446 456.495 416.725 451.06 424.374 449.98 427.302 449.413 428.839 447.729 444.082 446.266 453.835 445.918 456.05 445.607 458.226 445.315 460.24 454.629 462.124 466.358 463.46 479.991 463.46 493.385 463.459 504.95 462.179 514.173 460.331Z" fill="#009145"/><path d="M526.927 472.627C524.914 472.078 522.718 471.566 520.412 471.09 519.955 470.889 519.497 470.706 519.04 470.523L519.022 470.523C507.293 473.121 493.458 474.439 479.991 474.439 466.578 474.439 452.799 473.121 441.105 470.56 440.776 470.688 440.429 470.834 440.081 470.981 437.867 471.438 435.744 471.913 433.805 472.426L433.767 472.445C422.752 475.372 416 479.343 416 483.735 416 492.738 444.637 500.057 480.009 500.057 515.344 500.057 544 492.737 544 483.735 544 479.435 537.504 475.555 526.927 472.627Z" fill="#009145"/></g></g></g><g><g><g><path d="M522.344 507.016 520.151 507.016C519.135 506.416 518.056 505.931 516.932 505.571 513.392 504.4 508.716 503.797 503.031 503.797 497.346 503.797 492.671 504.4 489.138 505.571 486.31 506.515 485.065 507.555 484.662 507.959L484.662 507.959C482.031 506.701 478.973 506.701 476.342 507.959L476.342 507.959C475.939 507.557 474.694 506.515 471.866 505.571 468.329 504.4 463.654 503.797 457.969 503.797 452.284 503.797 447.608 504.4 444.076 505.571 442.952 505.931 441.873 506.416 440.857 507.016L438.656 507.016C436.879 507.016 435.438 508.457 435.438 510.234 435.438 512.012 436.879 513.453 438.656 513.453L438.69 513.453C438.892 522.598 439.986 528.094 442.334 532.007 443.804 534.533 446.059 536.511 448.755 537.64 451.215 538.694 454.231 539.207 457.969 539.207 462.827 539.207 469.733 538.461 473.604 532.011 475.551 528.764 476.64 524.429 477.066 517.825 477.208 517.457 477.281 517.066 477.281 516.672 477.281 514.894 478.722 513.453 480.5 513.453 482.278 513.453 483.719 514.894 483.719 516.672 483.72 517.065 483.793 517.454 483.934 517.821 484.36 524.425 485.449 528.76 487.396 532.007 488.867 534.533 491.121 536.511 493.818 537.64 496.278 538.694 499.293 539.207 503.031 539.207 507.89 539.207 514.796 538.461 518.666 532.011 521.014 528.098 522.112 522.602 522.31 513.457L522.344 513.457C524.122 513.457 525.562 512.016 525.562 510.238 525.562 508.461 524.122 507.02 522.344 507.02Z" fill="#009145"/></g></g></g></g></svg>